<svg xmlns="http://www.w3.org/2000/svg" xmlns:xlink="http://www.w3.org/1999/xlink" width="27.515" height="24.296" viewBox="0 0 27.515 24.296">
  <defs>
    <clipPath id="clip-path">
      <rect id="Rectángulo_9289" data-name="Rectángulo 9289" width="22.148" height="19.081" transform="translate(0 0)" fill="#fff"/>
    </clipPath>
  </defs>
  <g id="Grupo_58036" data-name="Grupo 58036" transform="translate(-8.926 -9.044)">
    <g id="Grupo_58001" data-name="Grupo 58001" transform="translate(8.926 9.044)" clip-path="url(#clip-path)">
      <path id="Trazado_64982" data-name="Trazado 64982" d="M17.069,19.88c-.056,0-.113,0-.169-.005-3.855-.008-7.77-.008-11.684,0H5.2a2.977,2.977,0,0,1-2.893-2.205C1.792,15.741,1.262,13.81.73,11.879L.342,10.466c-.059-.227-.127-.442-.194-.657L0,9.18l.042-.863A2.024,2.024,0,0,1,2.228,6.91c.735.008,1.469.007,2.2.005.584,0,1.168,0,1.752,0H16.2c.732,0,1.463,0,2.194,0l1.091,0h.205c.213,0,.424,0,.633.008a1.815,1.815,0,0,1,1.815,1.694,2.6,2.6,0,0,1-.068.893c-.665,2.459-1.331,4.9-2,7.333l-.077.29a9.075,9.075,0,0,1-.315,1.028,2.836,2.836,0,0,1-2.6,1.716m-5.982-2q2.938,0,5.877.007a.815.815,0,0,0,.831-.469,7.391,7.391,0,0,0,.231-.778l.084-.314q1-3.65,1.995-7.305a.522.522,0,0,0,.015-.113c-.158,0-.287,0-.416,0h-.222l-1.1,0c-.727,0-1.452,0-2.178,0H6.178c-.585,0-1.163,0-1.743,0-.765,0-1.53,0-2.3-.006l-.113-.007v.141l.059.194c.077.243.151.487.215.731l.385,1.4c.532,1.936,1.064,3.871,1.584,5.811a.986.986,0,0,0,.938.716q2.941-.008,5.878-.007m9.181-8.968h0m-.152-.119v0m-8.949,7.364a2.838,2.838,0,0,1-2.855-2.8,2.76,2.76,0,0,1,.83-1.984,2.865,2.865,0,0,1,2.017-.828h.008a2.834,2.834,0,0,1,2.855,2.8v.006a2.851,2.851,0,0,1-2.855,2.806m0-3.619a.777.777,0,0,0-.588.241.8.8,0,0,0-.241.577.824.824,0,0,0,.828.812A.835.835,0,0,0,12,13.346a.823.823,0,0,0-.829-.808" transform="translate(0 -0.798)" fill="#fff"/>
      <path id="Trazado_64983" data-name="Trazado 64983" d="M16.063,7.706,12.191,2.369A.907.907,0,0,0,11.6,2a.918.918,0,0,0-.9.366L6.827,7.706,5.176,6.552l3.87-5.338A2.908,2.908,0,0,1,9.737.538a2.96,2.96,0,0,1,2.194-.5,2.93,2.93,0,0,1,1.91,1.173l3.871,5.337Z" transform="translate(-0.515 0)" fill="#fff"/>
    </g>
    <g id="Icon_awesome-check" data-name="Icon awesome-check" transform="translate(22.676 17.861)" fill="#fff">
      <path d="M 4.225173950195312 14.22921943664551 C 3.740783929824829 14.22921943664551 3.285393953323364 14.04057884216309 2.942893981933594 13.69803905487061 L -0.7188659906387329 10.03627967834473 C -1.425845980644226 9.329298973083496 -1.425876021385193 8.178909301757812 -0.7189260125160217 7.471868991851807 L 0.07780398428440094 6.675119400024414 C 0.4202739894390106 6.332619190216064 0.8756639957427979 6.143979072570801 1.360054016113281 6.143979072570801 C 1.844453930854797 6.143979072570801 2.299854040145874 6.332619190216064 2.642343997955322 6.675168991088867 L 4.225161075592041 8.257966995239258 L 8.624823570251465 3.858329296112061 C 8.967293739318848 3.515849113464355 9.422674179077148 3.327219247817993 9.90705394744873 3.327219247817993 C 10.39142417907715 3.327219247817993 10.84680366516113 3.515839338302612 11.18929386138916 3.858339309692383 L 11.98598384857178 4.655049324035645 C 12.69295406341553 5.362039089202881 12.69296360015869 6.512429237365723 11.98603439331055 7.219449043273926 L 5.50740385055542 13.69809913635254 C 5.164864063262939 14.04060935974121 4.709504127502441 14.22921943664551 4.225173950195312 14.22921943664551 Z" stroke="none"/>
      <path d="M 4.225171089172363 12.97921657562256 C 4.369328498840332 12.97921657562256 4.513527393341064 12.9242057800293 4.623524188995361 12.81421947479248 L 11.10209369659424 6.335628986358643 C 11.32208442687988 6.115609169006348 11.32208442687988 5.758919239044189 11.10209369659424 5.538919448852539 L 10.3054141998291 4.7422194480896 C 10.08541393280029 4.522220134735107 9.728694915771484 4.522218704223633 9.50870418548584 4.7422194480896 L 4.22516393661499 10.02572917938232 L 1.758404016494751 7.55898904800415 C 1.538414001464844 7.338969707489014 1.181694030761719 7.338969707489014 0.9616940021514893 7.55898904800415 L 0.1650139838457108 8.35568904876709 C -0.05497602000832558 8.575709342956543 -0.05497602000832558 8.932409286499023 0.1650139838457108 9.152399063110352 L 3.826813936233521 12.81419944763184 C 3.936827421188354 12.92422294616699 4.080978870391846 12.97921657562256 4.225171089172363 12.97921657562256 M 4.225173950195312 15.47921943664551 C 3.406873941421509 15.47921943664551 2.637563943862915 15.1605396270752 2.058964014053345 14.58188915252686 L -1.602756023406982 10.92016887664795 C -2.797075986862183 9.725839614868164 -2.797126054763794 7.782459259033203 -1.60287606716156 6.588039398193359 L -0.8060960173606873 5.79124927520752 C -0.2275560200214386 5.212659358978271 0.5417540073394775 4.893979072570801 1.360054016113281 4.893979072570801 C 2.178404092788696 4.893979072570801 2.947733879089355 5.212679386138916 3.526334047317505 5.791379451751709 L 4.225165367126465 6.490207672119141 L 7.740943908691406 2.974449157714844 C 8.319523811340332 2.395859241485596 9.088804244995117 2.077219247817993 9.90705394744873 2.077219247817993 C 10.72531414031982 2.077219247817993 11.49459362030029 2.395859241485596 12.0731840133667 2.974449157714844 L 12.86988353729248 3.77117919921875 C 14.06417369842529 4.965519428253174 14.06421375274658 6.908879280090332 12.8699836730957 8.103279113769531 L 6.391294002532959 14.5819787979126 C 5.812623977661133 15.16060924530029 5.043374061584473 15.47921943664551 4.225173950195312 15.47921943664551 Z" stroke="none" fill="#1b1559"/>
    </g>
  </g>
</svg>
