<svg xmlns="http://www.w3.org/2000/svg" xmlns:xlink="http://www.w3.org/1999/xlink" width="26.674" height="24.912" viewBox="0 0 26.674 24.912">
  <defs>
    <clipPath id="clip-path">
      <rect id="Rectángulo_9289" data-name="Rectángulo 9289" width="22.148" height="19.081" transform="translate(0 0)" fill="#fff"/>
    </clipPath>
  </defs>
  <g id="Grupo_58038" data-name="Grupo 58038" transform="translate(-8.926 -9.044)">
    <g id="Grupo_58001" data-name="Grupo 58001" transform="translate(8.926 9.044)" clip-path="url(#clip-path)">
      <path id="Trazado_64982" data-name="Trazado 64982" d="M17.069,19.88c-.056,0-.113,0-.169-.005-3.855-.008-7.77-.008-11.684,0H5.2a2.977,2.977,0,0,1-2.893-2.205C1.792,15.741,1.262,13.81.73,11.879L.342,10.466c-.059-.227-.127-.442-.194-.657L0,9.18l.042-.863A2.024,2.024,0,0,1,2.228,6.91c.735.008,1.469.007,2.2.005.584,0,1.168,0,1.752,0H16.2c.732,0,1.463,0,2.194,0l1.091,0h.205c.213,0,.424,0,.633.008a1.815,1.815,0,0,1,1.815,1.694,2.6,2.6,0,0,1-.068.893c-.665,2.459-1.331,4.9-2,7.333l-.077.29a9.075,9.075,0,0,1-.315,1.028,2.836,2.836,0,0,1-2.6,1.716m-5.982-2q2.938,0,5.877.007a.815.815,0,0,0,.831-.469,7.391,7.391,0,0,0,.231-.778l.084-.314q1-3.65,1.995-7.305a.522.522,0,0,0,.015-.113c-.158,0-.287,0-.416,0h-.222l-1.1,0c-.727,0-1.452,0-2.178,0H6.178c-.585,0-1.163,0-1.743,0-.765,0-1.53,0-2.3-.006l-.113-.007v.141l.059.194c.077.243.151.487.215.731l.385,1.4c.532,1.936,1.064,3.871,1.584,5.811a.986.986,0,0,0,.938.716q2.941-.008,5.878-.007m9.181-8.968h0m-.152-.119v0m-8.949,7.364a2.838,2.838,0,0,1-2.855-2.8,2.76,2.76,0,0,1,.83-1.984,2.865,2.865,0,0,1,2.017-.828h.008a2.834,2.834,0,0,1,2.855,2.8v.006a2.851,2.851,0,0,1-2.855,2.806m0-3.619a.777.777,0,0,0-.588.241.8.8,0,0,0-.241.577.824.824,0,0,0,.828.812A.835.835,0,0,0,12,13.346a.823.823,0,0,0-.829-.808" transform="translate(0 -0.798)" fill="#fff"/>
      <path id="Trazado_64983" data-name="Trazado 64983" d="M16.063,7.706,12.191,2.369A.907.907,0,0,0,11.6,2a.918.918,0,0,0-.9.366L6.827,7.706,5.176,6.552l3.87-5.338A2.908,2.908,0,0,1,9.737.538a2.96,2.96,0,0,1,2.194-.5,2.93,2.93,0,0,1,1.91,1.173l3.871,5.337Z" transform="translate(-0.515 0)" fill="#fff"/>
    </g>
    <g id="Icon_ionic-ios-add" data-name="Icon ionic-ios-add" transform="translate(11.141 9.657)" fill="#fff">
      <path d="M 16.46143341064453 22.79932403564453 C 15.82669258117676 22.79932403564453 15.22931289672852 22.5515022277832 14.77931308746338 22.10150337219238 C 14.32931327819824 21.65150260925293 14.08148288726807 21.05411338806152 14.08148288726807 20.41938400268555 L 14.08148288726807 18.82196235656738 L 12.5236930847168 18.82196235656738 C 11.88895320892334 18.82196235656738 11.29157257080078 18.57414245605469 10.84157276153564 18.12414360046387 C 10.39158248901367 17.6741828918457 10.14374256134033 17.0767822265625 10.14374256134033 16.4420223236084 C 10.14374256134033 15.12971305847168 11.21138286590576 14.06207275390625 12.5236930847168 14.06207275390625 L 14.08148288726807 14.06207275390625 L 14.08148288726807 12.14356327056885 C 14.08148288726807 10.83126354217529 15.1491231918335 9.763623237609863 16.46143341064453 9.763623237609863 C 17.77373313903809 9.763623237609863 18.84137344360352 10.83126354217529 18.84137344360352 12.14356327056885 L 18.84137344360352 14.06207275390625 L 20.57895278930664 14.06207275390625 C 21.89126205444336 14.06207275390625 22.95890235900879 15.12971305847168 22.95890235900879 16.4420223236084 C 22.95890235900879 17.75432395935059 21.89126205444336 18.82196235656738 20.57895278930664 18.82196235656738 L 18.84137344360352 18.82196235656738 L 18.84137344360352 20.41938400268555 C 18.84137344360352 21.7316837310791 17.77373313903809 22.79932403564453 16.46143341064453 22.79932403564453 Z" stroke="none"/>
      <path d="M 16.46143341064453 11.26362228393555 C 15.97746276855469 11.26362228393555 15.58148384094238 11.65959358215332 15.58148384094238 12.14356231689453 L 15.58148384094238 15.56207275390625 L 12.5236930847168 15.56207275390625 C 12.03972244262695 15.56207275390625 11.64374351501465 15.95805358886719 11.64374351501465 16.4420223236084 C 11.64374351501465 16.68400192260742 11.74273300170898 16.90399360656738 11.9022331237793 17.06348419189453 C 12.06172370910645 17.22297286987305 12.28170204162598 17.32196426391602 12.5236930847168 17.32196426391602 L 15.58148384094238 17.32196426391602 L 15.58148384094238 20.41938400268555 C 15.58148384094238 20.66136360168457 15.68048286437988 20.8813533782959 15.83997344970703 21.04084396362305 C 15.99946212768555 21.20033264160156 16.21945381164551 21.29932403564453 16.46143341064453 21.29932403564453 C 16.94540214538574 21.29932403564453 17.34137344360352 20.90335273742676 17.34137344360352 20.41938400268555 L 17.34137344360352 17.32196426391602 L 20.57895278930664 17.32196426391602 C 21.06292343139648 17.32196426391602 21.45890426635742 16.92599296569824 21.45890426635742 16.4420223236084 C 21.45890426635742 15.95805358886719 21.06292343139648 15.56207275390625 20.57895278930664 15.56207275390625 L 17.34137344360352 15.56207275390625 L 17.34137344360352 12.14356231689453 C 17.34137344360352 11.65959358215332 16.94540214538574 11.26362228393555 16.46143341064453 11.26362228393555 M 16.46143341064453 8.263622283935547 C 18.6008415222168 8.263622283935547 20.34137344360352 10.00415229797363 20.34137344360352 12.14356231689453 L 20.34137344360352 12.56207275390625 L 20.57895278930664 12.56207275390625 C 22.71836280822754 12.56207275390625 24.45890426635742 14.3026123046875 24.45890426635742 16.4420223236084 C 24.45890426635742 18.5814323425293 22.71836280822754 20.32196426391602 20.57895278930664 20.32196426391602 L 20.34137344360352 20.32196426391602 L 20.34137344360352 20.41938400268555 C 20.34137344360352 22.55879211425781 18.6008415222168 24.29932403564453 16.46143341064453 24.29932403564453 C 15.42603302001953 24.29932403564453 14.45196342468262 23.89547348022461 13.71865272521973 23.16216278076172 C 12.98533248901367 22.42885208129883 12.58148384094238 21.45477294921875 12.58148384094238 20.41938400268555 L 12.58148384094238 20.32196426391602 L 12.5236930847168 20.32196426391602 C 11.4882926940918 20.32196426391602 10.51422309875488 19.91811370849609 9.780912399291992 19.1848030090332 C 9.047622680664062 18.45155334472656 8.643743515014648 17.47746276855469 8.643743515014648 16.4420223236084 C 8.643743515014648 14.3026123046875 10.3842830657959 12.56207275390625 12.5236930847168 12.56207275390625 L 12.58148384094238 12.56207275390625 L 12.58148384094238 12.14356231689453 C 12.58148384094238 10.00415229797363 14.32202339172363 8.263622283935547 16.46143341064453 8.263622283935547 Z" stroke="none" fill="#07bee2"/>
    </g>
  </g>
</svg>
