<svg xmlns="http://www.w3.org/2000/svg" xmlns:xlink="http://www.w3.org/1999/xlink" width="141.257" height="34.016" viewBox="0 0 141.257 34.016">
  <defs>
    <clipPath id="clip-path">
      <rect id="Rectángulo_8326" data-name="Rectángulo 8326" width="10.725" height="7.401" transform="translate(0 0)" fill="#ffc428"/>
    </clipPath>
  </defs>
  <g id="Grupo_57928" data-name="Grupo 57928" transform="translate(-137.461 -281.49)">
    <path id="Trazado_62148" data-name="Trazado 62148" d="M141.123,10.321a6.882,6.882,0,0,0-.928-.345,6.569,6.569,0,0,0-1.959-.275,10.041,10.041,0,0,0-7.415,3.384l-.171.178.965-3.31-7.175.612L120.2,24.707l-.019.012c-.471.307-1.013.642-1.606.994l-.005,0a16.239,16.239,0,0,1-7.991,1.867,8.879,8.879,0,0,1-4.857-1.281l-.006,0a6.229,6.229,0,0,1-1.9-2.345l-.072-.146.15.063a12.094,12.094,0,0,0,10.025-.475,7.271,7.271,0,0,0,4.168-7.683c-.436-2.314-2.816-6.231-8.967-6.231a14.021,14.021,0,0,0-3.527.43,11.746,11.746,0,0,0-5.61,3.329,12.19,12.19,0,0,0-3.545,8.688,12.345,12.345,0,0,0,.1,1.656l0,.022-.012.019a10.009,10.009,0,0,1-2.093,2.022,6.264,6.264,0,0,1-1.154.861c-.153.088-.966.547-1.14.613a5.941,5.941,0,0,1-2.087.387,3.547,3.547,0,0,1-.477-.031,1.559,1.559,0,0,1-1.339-.836,1.774,1.774,0,0,1-.13-.288l0-.015a4,4,0,0,1,.008-.669,8.409,8.409,0,0,1,.126-.853,15.7,15.7,0,0,1,.4-1.84l.121-.405.005-.025c0-.009,0-.018,0-.026l.019-.1,2.1-7.025H95.2l1.668-5.15H92.471L94.514,3.4,86.639,5.9l-1.2,4.349h-3.25l-1.537,5.15h3.227l-1.712,5.716,0,.006c-.138.541-.307,1.153-.5,1.814l-.552,1.7-.1.326-.024.028a12.5,12.5,0,0,1-.92.971c-.112.106-.215.2-.318.292a4.833,4.833,0,0,1-3.273,1.378,2.648,2.648,0,0,1-1.27-.276,1.7,1.7,0,0,1-.682-.674,2.083,2.083,0,0,1-.247-.838,5.3,5.3,0,0,1,.269-1.961l.985-2.979a17.756,17.756,0,0,0,1.085-5.289,6.045,6.045,0,0,0-1.635-4.444,5.463,5.463,0,0,0-2.81-1.461l-.023,0-.1,0c-.164-.007-.337-.011-.514-.011a8.77,8.77,0,0,0-3.169.63,16.858,16.858,0,0,0-2.847,1.4,11.046,11.046,0,0,0-1.15.792l-.182-.057.727-2.487-7.175.612L53.521,24.61l-.018.012c-.515.339-1.106.706-1.754,1.091l-.005,0a16.237,16.237,0,0,1-7.991,1.867A8.879,8.879,0,0,1,38.894,26.3l-.006,0a6.23,6.23,0,0,1-1.9-2.345l-.072-.146.15.063A12.092,12.092,0,0,0,47.09,23.4a7.271,7.271,0,0,0,4.168-7.683c-.436-2.314-2.816-6.231-8.967-6.231a12.134,12.134,0,0,0-9.137,3.758,12.19,12.19,0,0,0-3.544,8.688c0,.394.014.8.051,1.2-.235.161-.447.31-.644.449a16.674,16.674,0,0,1-4.36,2.289A24.54,24.54,0,0,1,18.84,27.3a22.9,22.9,0,0,1-6.472-.3,7.133,7.133,0,0,1-3.9-2.481,9.124,9.124,0,0,1-1.3-4.662,14.91,14.91,0,0,1,.6-4.17A17.685,17.685,0,0,1,11.5,8.5a7.009,7.009,0,0,1,4.91-2.6c.129-.007.256-.01.378-.01a3.883,3.883,0,0,1,3.6,1.63,6.028,6.028,0,0,1,.7,3.125,14.168,14.168,0,0,1-.154,1.415l-.018.167,7.41-.876a11.356,11.356,0,0,0,.276-1.8c.259-2.963-.394-5.289-1.943-6.914C25.067.956,22.479.073,18.97.005,18.792,0,18.607,0,18.421,0A16.918,16.918,0,0,0,9.08,2.359a17.15,17.15,0,0,0-6,6.527A24.752,24.752,0,0,0,.534,16.757a19.03,19.03,0,0,0-.055,8.728,11.378,11.378,0,0,0,3.192,5.521c2.019,1.9,4.964,2.854,9.267,2.987q.738.023,1.448.023A28.041,28.041,0,0,0,25.98,31.838a25.442,25.442,0,0,0,5.553-3.382c.113.148.231.291.354.43l.005.006a11.359,11.359,0,0,0,1.355,1.438c2.483,2.2,5.936,3.321,10.264,3.321a21.725,21.725,0,0,0,5.99-.835c.568-.159,1.108-.327,1.6-.5l.111-.039-.226.751H58l.649-2.173L62.262,19.29l.62-1.406a4.017,4.017,0,0,1,2.111-2.093l.057-.024a4.791,4.791,0,0,1,1.814-.372,3.509,3.509,0,0,1,1.009.13,1.718,1.718,0,0,1,.88.571,3,3,0,0,1,.42,2.122,11.64,11.64,0,0,1-.327,1.767c-.065.258-.142.541-.229.842l-.151.511c-.107.4-.23.839-.375,1.332l-.251.774-.584,1.927c-.014.048-.028.1-.042.146-.063.219-.121.435-.175.642l0,.009a6.473,6.473,0,0,0,.944,5.132,5.711,5.711,0,0,0,2.893,2.211,8.7,8.7,0,0,0,2.881.443h.1a13.335,13.335,0,0,0,6.782-2.3,3.532,3.532,0,0,0,.288-.256,3.475,3.475,0,0,1,.284-.251l.052-.034.091.146.01,0a7.364,7.364,0,0,0,.576.638,7.273,7.273,0,0,0,1.8,1.2,8.04,8.04,0,0,0,3.59.741h.1a12.112,12.112,0,0,0,5.851-1.023A17.665,17.665,0,0,0,95.535,31.5c.587-.438,2.538-1.889,3.093-2.462l.119-.1c.079.184.079.067.079.067l.012.011A9.186,9.186,0,0,0,99.9,30.174c.057.053.114.1.172.157,2.483,2.2,5.936,3.321,10.264,3.321a21.728,21.728,0,0,0,5.99-.835c.512-.143,1.008-.3,1.474-.454l.111-.038-.215.717h7.013l.033-.106c.138-.446.319-1.059.552-1.872l3.515-11.7h0a5.016,5.016,0,0,1,1.44-2.195,8.716,8.716,0,0,1,2.505-1.635,6.874,6.874,0,0,1,2.724-.617,7.1,7.1,0,0,1,1.789.191,10.648,10.648,0,0,1,1.343.468l.132.055,2.513-5.245ZM106.082,20.966a10.871,10.871,0,0,1-3.008-.406l-.045-.013,0-.047a6.325,6.325,0,0,1,1.651-4,5.237,5.237,0,0,1,3.979-1.836h.02a4.17,4.17,0,0,1,2.524.672,2.252,2.252,0,0,1,.9,1.891c0,1.212-1.051,2.426-2.742,3.167a8.5,8.5,0,0,1-3.282.572M36.206,20.5a6.328,6.328,0,0,1,1.651-4,5.241,5.241,0,0,1,3.982-1.836h.017a4.168,4.168,0,0,1,2.524.672,2.252,2.252,0,0,1,.9,1.891c0,1.212-1.051,2.426-2.742,3.167a8.5,8.5,0,0,1-3.282.572,10.872,10.872,0,0,1-3.008-.406l-.045-.013Z" transform="translate(137.461 281.49)" fill="#fff"/>
    <g id="Grupo_30" data-name="Grupo 30" transform="translate(267.991 307.594)">
      <g id="Grupo_26" data-name="Grupo 26" transform="translate(0 0)" clip-path="url(#clip-path)">
        <path id="Trazado_62146" data-name="Trazado 62146" d="M1.958,2.175A6.181,6.181,0,0,1,6.693,0,4.9,4.9,0,0,1,9.675.791,2.612,2.612,0,0,1,10.725,3c0,1.488-1.314,2.882-3.241,3.727A12.358,12.358,0,0,1,0,6.92,7.49,7.49,0,0,1,1.958,2.175" transform="translate(0 0)" fill="#ffc428"/>
      </g>
    </g>
  </g>
</svg>
